{
  "accessors": [
    {
      "bufferView": 0,
      "componentType": 5126,
      "count": 24,
      "max": [
        0.10002976655960083,
        0.09807867556810379,
        0.09967314451932907
      ],
      "min": [
        -0.10002976655960083,
        -0.09807867556810379,
        -0.09967314451932907
      ],
      "type": "VEC3"
    },
    {
      "bufferView": 1,
      "componentType": 5126,
      "count": 24,
      "type": "VEC3"
    },
    {
      "bufferView": 2,
      "componentType": 5126,
      "count": 24,
      "type": "VEC2"
    },
    {
      "bufferView": 3,
      "componentType": 5125,
      "count": 36,
      "type": "SCALAR"
    },
    {
      "bufferView": 4,
      "componentType": 5126,
      "count": 24,
      "max": [
        0.10002976655960083,
        0.09807867556810379,
        0.09967314451932907
      ],
      "min": [
        -0.10002976655960083,
        -0.09807867556810379,
        -0.09967314451932907
      ],
      "type": "VEC3"
    },
    {
      "bufferView": 5,
      "componentType": 5126,
      "count": 24,
      "type": "VEC3"
    },
    {
      "bufferView": 6,
      "componentType": 5126,
      "count": 24,
      "type": "VEC2"
    },
    {
      "bufferView": 7,
      "componentType": 5125,
      "count": 36,
      "type": "SCALAR"
    },
    {
      "bufferView": 8,
      "componentType": 5126,
      "count": 24,
      "max": [
        0.10002976655960083,
        0.09807867556810379,
        0.09967314451932907
      ],
      "min": [
        -0.10002976655960083,
        -0.09807867556810379,
        -0.09967314451932907
      ],
      "type": "VEC3"
    },
    {
      "bufferView": 9,
      "componentType": 5126,
      "count": 24,
      "type": "VEC3"
    },
    {
      "bufferView": 10,
      "componentType": 5126,
      "count": 24,
      "type": "VEC2"
    },
    {
      "bufferView": 11,
      "componentType": 5125,
      "count": 36,
      "type": "SCALAR"
    },
    {
      "bufferView": 12,
      "componentType": 5126,
      "count": 24,
      "max": [
        0.10002976655960083,
        0.09807867556810379,
        0.09967314451932907
      ],
      "min": [
        -0.10002976655960083,
        -0.09807867556810379,
        -0.09967314451932907
      ],
      "type": "VEC3"
    },
    {
      "bufferView": 13,
      "componentType": 5126,
      "count": 24,
      "type": "VEC3"
    },
    {
      "bufferView": 14,
      "componentType": 5126,
      "count": 24,
      "type": "VEC2"
    },
    {
      "bufferView": 15,
      "componentType": 5125,
      "count": 36,
      "type": "SCALAR"
    },
    {
      "bufferView": 16,
      "componentType": 5126,
      "count": 24,
      "max": [
        0.4551381766796112,
        0.24810828268527985,
        0.35788318514823914
      ],
      "min": [
        -0.4551381766796112,
        -0.24810828268527985,
        -0.35788318514823914
      ],
      "type": "VEC3"
    },
    {
      "bufferView": 17,
      "componentType": 5126,
      "count": 24,
      "type": "VEC3"
    },
    {
      "bufferView": 18,
      "componentType": 5126,
      "count": 24,
      "type": "VEC2"
    },
    {
      "bufferView": 19,
      "componentType": 5125,
      "count": 36,
      "type": "SCALAR"
    },
    {
      "bufferView": 20,
      "componentType": 5126,
      "count": 24,
      "max": [
        0.16681207716464996,
        0.15873035788536072,
        0.16872836649417877
      ],
      "min": [
        -0.16681207716464996,
        -0.15873035788536072,
        -0.16872836649417877
      ],
      "type": "VEC3"
    },
    {
      "bufferView": 21,
      "componentType": 5126,
      "count": 24,
      "type": "VEC3"
    },
    {
      "bufferView": 22,
      "componentType": 5126,
      "count": 24,
      "type": "VEC2"
    },
    {
      "bufferView": 23,
      "componentType": 5125,
      "count": 36,
      "type": "SCALAR"
    },
    {
      "bufferView": 24,
      "componentType": 5126,
      "count": 24,
      "max": [
        0.21944455802440643,
        0.22508057951927185,
        0.23638486862182617
      ],
      "min": [
        -0.21944455802440643,
        -0.22508057951927185,
        -0.23638486862182617
      ],
      "type": "VEC3"
    },
    {
      "bufferView": 25,
      "componentType": 5126,
      "count": 24,
      "type": "VEC3"
    },
    {
      "bufferView": 26,
      "componentType": 5126,
      "count": 24,
      "type": "VEC2"
    },
    {
      "bufferView": 27,
      "componentType": 5125,
      "count": 36,
      "type": "SCALAR"
    },
    {
      "bufferView": 28,
      "componentType": 5126,
      "count": 24,
      "max": [
        0.016328075900673866,
        0.051794812083244324,
        0.047492582350969315
      ],
      "min": [
        -0.016328075900673866,
        -0.051794812083244324,
        -0.047492582350969315
      ],
      "type": "VEC3"
    },
    {
      "bufferView": 29,
      "componentType": 5126,
      "count": 24,
      "type": "VEC3"
    },
    {
      "bufferView": 30,
      "componentType": 5126,
      "count": 24,
      "type": "VEC2"
    },
    {
      "bufferView": 31,
      "componentType": 5125,
      "count": 36,
      "type": "SCALAR"
    },
    {
      "bufferView": 32,
      "componentType": 5126,
      "count": 24,
      "max": [
        0.009686844423413277,
        0.12085828185081482,
        0.0369427464902401
      ],
      "min": [
        -0.009686844423413277,
        -0.12085828185081482,
        -0.0369427464902401
      ],
      "type": "VEC3"
    },
    {
      "bufferView": 33,
      "componentType": 5126,
      "count": 24,
      "type": "VEC3"
    },
    {
      "bufferView": 34,
      "componentType": 5126,
      "count": 24,
      "type": "VEC2"
    },
    {
      "bufferView": 35,
      "componentType": 5125,
      "count": 36,
      "type": "SCALAR"
    },
    {
      "bufferView": 36,
      "componentType": 5126,
      "count": 24,
      "max": [
        0.009686844423413277,
        0.12085828185081482,
        0.0369427464902401
      ],
      "min": [
        -0.009686844423413277,
        -0.12085828185081482,
        -0.0369427464902401
      ],
      "type": "VEC3"
    },
    {
      "bufferView": 37,
      "componentType": 5126,
      "count": 24,
      "type": "VEC3"
    },
    {
      "bufferView": 38,
      "componentType": 5126,
      "count": 24,
      "type": "VEC2"
    },
    {
      "bufferView": 39,
      "componentType": 5125,
      "count": 36,
      "type": "SCALAR"
    },
    {
      "bufferView": 40,
      "componentType": 5126,
      "count": 24,
      "max": [
        0.10002976655960083,
        0.20493453741073608,
        0.04998791217803955
      ],
      "min": [
        -0.10002976655960083,
        -0.20493453741073608,
        -0.04998791217803955
      ],
      "type": "VEC3"
    },
    {
      "bufferView": 41,
      "componentType": 5126,
      "count": 24,
      "type": "VEC3"
    },
    {
      "bufferView": 42,
      "componentType": 5126,
      "count": 24,
      "type": "VEC2"
    },
    {
      "bufferView": 43,
      "componentType": 5125,
      "count": 36,
      "type": "SCALAR"
    },
    {
      "bufferView": 44,
      "componentType": 5126,
      "count": 24,
      "max": [
        0.10002976655960083,
        0.20493453741073608,
        0.049987971782684326
      ],
      "min": [
        -0.10002976655960083,
        -0.20493453741073608,
        -0.049987852573394775
      ],
      "type": "VEC3"
    },
    {
      "bufferView": 45,
      "componentType": 5126,
      "count": 24,
      "type": "VEC3"
    },
    {
      "bufferView": 46,
      "componentType": 5126,
      "count": 24,
      "type": "VEC2"
    },
    {
      "bufferView": 47,
      "componentType": 5125,
      "count": 36,
      "type": "SCALAR"
    },
    {
      "bufferView": 48,
      "componentType": 5126,
      "count": 24,
      "max": [
        0.027488257735967636,
        0.051793016493320465,
        0.06485027819871902
      ],
      "min": [
        -0.027488257735967636,
        -0.051793016493320465,
        -0.06485027819871902
      ],
      "type": "VEC3"
    },
    {
      "bufferView": 49,
      "componentType": 5126,
      "count": 24,
      "type": "VEC3"
    },
    {
      "bufferView": 50,
      "componentType": 5126,
      "count": 24,
      "type": "VEC2"
    },
    {
      "bufferView": 51,
      "componentType": 5125,
      "count": 36,
      "type": "SCALAR"
    },
    {
      "bufferView": 52,
      "componentType": 5126,
      "count": 24,
      "max": [
        0.027488257735967636,
        0.051793016493320465,
        0.06485027819871902
      ],
      "min": [
        -0.027488257735967636,
        -0.051793016493320465,
        -0.06485027819871902
      ],
      "type": "VEC3"
    },
    {
      "bufferView": 53,
      "componentType": 5126,
      "count": 24,
      "type": "VEC3"
    },
    {
      "bufferView": 54,
      "componentType": 5126,
      "count": 24,
      "type": "VEC2"
    },
    {
      "bufferView": 55,
      "componentType": 5125,
      "count": 36,
      "type": "SCALAR"
    },
    {
      "bufferView": 56,
      "componentType": 5126,
      "count": 60,
      "max": [
        1.9666668176651
      ],
      "min": [
        0.0
      ],
      "type": "SCALAR"
    },
    {
      "bufferView": 57,
      "componentType": 5126,
      "count": 60,
      "type": "VEC3"
    },
    {
      "bufferView": 58,
      "componentType": 5126,
      "count": 60,
      "max": [
        1.9666668176651
      ],
      "min": [
        0.0
      ],
      "type": "SCALAR"
    },
    {
      "bufferView": 59,
      "componentType": 5126,
      "count": 60,
      "type": "VEC3"
    },
    {
      "bufferView": 60,
      "componentType": 5126,
      "count": 60,
      "max": [
        1.9666668176651
      ],
      "min": [
        0.0
      ],
      "type": "SCALAR"
    },
    {
      "bufferView": 61,
      "componentType": 5126,
      "count": 60,
      "type": "VEC3"
    },
    {
      "bufferView": 62,
      "componentType": 5126,
      "count": 60,
      "max": [
        1.9666668176651
      ],
      "min": [
        0.0
      ],
      "type": "SCALAR"
    },
    {
      "bufferView": 63,
      "componentType": 5126,
      "count": 60,
      "type": "VEC4"
    },
    {
      "bufferView": 64,
      "componentType": 5126,
      "count": 60,
      "max": [
        1.9666668176651
      ],
      "min": [
        0.0
      ],
      "type": "SCALAR"
    },
    {
      "bufferView": 65,
      "componentType": 5126,
      "count": 60,
      "type": "VEC4"
    },
    {
      "bufferView": 66,
      "componentType": 5126,
      "count": 60,
      "max": [
        1.9666668176651
      ],
      "min": [
        0.0
      ],
      "type": "SCALAR"
    },
    {
      "bufferView": 67,
      "componentType": 5126,
      "count": 60,
      "type": "VEC4"
    }
  ],
  "animations": [
    {
      "channels": [
        {
          "sampler": 0,
          "target": {
            "node": 7,
            "path": "translation"
          }
        },
        {
          "sampler": 1,
          "target": {
            "node": 8,
            "path": "translation"
          }
        },
        {
          "sampler": 2,
          "target": {
            "node": 9,
            "path": "translation"
          }
        },
        {
          "sampler": 3,
          "target": {
            "node": 7,
            "path": "rotation"
          }
        },
        {
          "sampler": 4,
          "target": {
            "node": 8,
            "path": "rotation"
          }
        },
        {
          "sampler": 5,
          "target": {
            "node": 9,
            "path": "rotation"
          }
        }
      ],
      "name": "Animation",
      "samplers": [
        {
          "input": 56,
          "interpolation": "LINEAR",
          "output": 57
        },
        {
          "input": 58,
          "interpolation": "LINEAR",
          "output": 59
        },
        {
          "input": 60,
          "interpolation": "LINEAR",
          "output": 61
        },
        {
          "input": 62,
          "interpolation": "LINEAR",
          "output": 63
        },
        {
          "input": 64,
          "interpolation": "LINEAR",
          "output": 65
        },
        {
          "input": 66,
          "interpolation": "LINEAR",
          "output": 67
        }
      ]
    }
  ],
  "asset": {
    "generator": "Prisma3D Pro",
    "version": "2.0"
  },
  "bufferViews": [
    {
      "buffer": 0,
      "byteLength": 288,
      "target": 34962
    },
    {
      "buffer": 1,
      "byteLength": 288,
      "target": 34962
    },
    {
      "buffer": 2,
      "byteLength": 192,
      "target": 34962
    },
    {
      "buffer": 3,
      "byteLength": 144,
      "target": 34963
    },
    {
      "buffer": 4,
      "byteLength": 288,
      "target": 34962
    },
    {
      "buffer": 5,
      "byteLength": 288,
      "target": 34962
    },
    {
      "buffer": 6,
      "byteLength": 192,
      "target": 34962
    },
    {
      "buffer": 7,
      "byteLength": 144,
      "target": 34963
    },
    {
      "buffer": 8,
      "byteLength": 288,
      "target": 34962
    },
    {
      "buffer": 9,
      "byteLength": 288,
      "target": 34962
    },
    {
      "buffer": 10,
      "byteLength": 192,
      "target": 34962
    },
    {
      "buffer": 11,
      "byteLength": 144,
      "target": 34963
    },
    {
      "buffer": 12,
      "byteLength": 288,
      "target": 34962
    },
    {
      "buffer": 13,
      "byteLength": 288,
      "target": 34962
    },
    {
      "buffer": 14,
      "byteLength": 192,
      "target": 34962
    },
    {
      "buffer": 15,
      "byteLength": 144,
      "target": 34963
    },
    {
      "buffer": 16,
      "byteLength": 288,
      "target": 34962
    },
    {
      "buffer": 17,
      "byteLength": 288,
      "target": 34962
    },
    {
      "buffer": 18,
      "byteLength": 192,
      "target": 34962
    },
    {
      "buffer": 19,
      "byteLength": 144,
      "target": 34963
    },
    {
      "buffer": 20,
      "byteLength": 288,
      "target": 34962
    },
    {
      "buffer": 21,
      "byteLength": 288,
      "target": 34962
    },
    {
      "buffer": 22,
      "byteLength": 192,
      "target": 34962
    },
    {
      "buffer": 23,
      "byteLength": 144,
      "target": 34963
    },
    {
      "buffer": 24,
      "byteLength": 288,
      "target": 34962
    },
    {
      "buffer": 25,
      "byteLength": 288,
      "target": 34962
    },
    {
      "buffer": 26,
      "byteLength": 192,
      "target": 34962
    },
    {
      "buffer": 27,
      "byteLength": 144,
      "target": 34963
    },
    {
      "buffer": 28,
      "byteLength": 288,
      "target": 34962
    },
    {
      "buffer": 29,
      "byteLength": 288,
      "target": 34962
    },
    {
      "buffer": 30,
      "byteLength": 192,
      "target": 34962
    },
    {
      "buffer": 31,
      "byteLength": 144,
      "target": 34963
    },
    {
      "buffer": 32,
      "byteLength": 288,
      "target": 34962
    },
    {
      "buffer": 33,
      "byteLength": 288,
      "target": 34962
    },
    {
      "buffer": 34,
      "byteLength": 192,
      "target": 34962
    },
    {
      "buffer": 35,
      "byteLength": 144,
      "target": 34963
    },
    {
      "buffer": 36,
      "byteLength": 288,
      "target": 34962
    },
    {
      "buffer": 37,
      "byteLength": 288,
      "target": 34962
    },
    {
      "buffer": 38,
      "byteLength": 192,
      "target": 34962
    },
    {
      "buffer": 39,
      "byteLength": 144,
      "target": 34963
    },
    {
      "buffer": 40,
      "byteLength": 288,
      "target": 34962
    },
    {
      "buffer": 41,
      "byteLength": 288,
      "target": 34962
    },
    {
      "buffer": 42,
      "byteLength": 192,
      "target": 34962
    },
    {
      "buffer": 43,
      "byteLength": 144,
      "target": 34963
    },
    {
      "buffer": 44,
      "byteLength": 288,
      "target": 34962
    },
    {
      "buffer": 45,
      "byteLength": 288,
      "target": 34962
    },
    {
      "buffer": 46,
      "byteLength": 192,
      "target": 34962
    },
    {
      "buffer": 47,
      "byteLength": 144,
      "target": 34963
    },
    {
      "buffer": 48,
      "byteLength": 288,
      "target": 34962
    },
    {
      "buffer": 49,
      "byteLength": 288,
      "target": 34962
    },
    {
      "buffer": 50,
      "byteLength": 192,
      "target": 34962
    },
    {
      "buffer": 51,
      "byteLength": 144,
      "target": 34963
    },
    {
      "buffer": 52,
      "byteLength": 288,
      "target": 34962
    },
    {
      "buffer": 53,
      "byteLength": 288,
      "target": 34962
    },
    {
      "buffer": 54,
      "byteLength": 192,
      "target": 34962
    },
    {
      "buffer": 55,
      "byteLength": 144,
      "target": 34963
    },
    {
      "buffer": 56,
      "byteLength": 240
    },
    {
      "buffer": 57,
      "byteLength": 720
    },
    {
      "buffer": 58,
      "byteLength": 240
    },
    {
      "buffer": 59,
      "byteLength": 720
    },
    {
      "buffer": 60,
      "byteLength": 240
    },
    {
      "buffer": 61,
      "byteLength": 720
    },
    {
      "buffer": 62,
      "byteLength": 240
    },
    {
      "buffer": 63,
      "byteLength": 960
    },
    {
      "buffer": 64,
      "byteLength": 240
    },
    {
      "buffer": 65,
      "byteLength": 960
    },
    {
      "buffer": 66,
      "byteLength": 240
    },
    {
      "buffer": 67,
      "byteLength": 960
    }
  ],
  "buffers": [
    {
      "byteLength": 288,
      "uri": "data:application/octet-stream;base64,"
    },
    {
      "byteLength": 288,
      "uri": "data:application/octet-stream;base64,"
    },
    {
      "byteLength": 192,
      "uri": "data:application/octet-stream;base64,"
    },
    {
      "byteLength": 144,
      "uri": "data:application/octet-stream;base64,"
    },
    {
      "byteLength": 288,
      "uri": "data:application/octet-stream;base64,"
    },
    {
      "byteLength": 288,
      "uri": "data:application/octet-stream;base64,"
    },
    {
      "byteLength": 192,
      "uri": "data:application/octet-stream;base64,"
    },
    {
      "byteLength": 144,
      "uri": "data:application/octet-stream;base64,"
    },
    {
      "byteLength": 288,
      "uri": "data:application/octet-stream;base64,"
    },
    {
      "byteLength": 288,
      "uri": "data:application/octet-stream;base64,"
    },
    {
      "byteLength": 192,
      "uri": "data:application/octet-stream;base64,"
    },
    {
      "byteLength": 144,
      "uri": "data:application/octet-stream;base64,"
    },
    {
      "byteLength": 288,
      "uri": "data:application/octet-stream;base64,"
    },
    {
      "byteLength": 288,
      "uri": "data:application/octet-stream;base64,"
    },
    {
      "byteLength": 192,
      "uri": "data:application/octet-stream;base64,"
    },
    {
      "byteLength": 144,
      "uri": "data:application/octet-stream;base64,"
    },
    {
      "byteLength": 288,
      "uri": "data:application/octet-stream;base64,"
    },
    {
      "byteLength": 288,
      "uri": "data:application/octet-stream;base64,"
    },
    {
      "byteLength": 192,
      "uri": "data:application/octet-stream;base64,"
    },
    {
      "byteLength": 144,
      "uri": "data:application/octet-stream;base64,"
    },
    {
      "byteLength": 288,
      "uri": "data:application/octet-stream;base64,"
    },
    {
      "byteLength": 288,
      "uri": "data:application/octet-stream;base64,"
    },
    {
      "byteLength": 192,
      "uri": "data:application/octet-stream;base64,"
    },
    {
      "byteLength": 144,
      "uri": "data:application/octet-stream;base64,"
    },
    {
      "byteLength": 288,
      "uri": "data:application/octet-stream;base64,"
    },
    {
      "byteLength": 288,
      "uri": "data:application/octet-stream;base64,"
    },
    {
      "byteLength": 192,
      "uri": "data:application/octet-stream;base64,"
    },
    {
      "byteLength": 144,
      "uri": "data:application/octet-stream;base64,"
    },
    {
      "byteLength": 288,
      "uri": "data:application/octet-stream;base64,"
    },
    {
      "byteLength": 288,
      "uri": "data:application/octet-stream;base64,"
    },
    {
      "byteLength": 192,
      "uri": "data:application/octet-stream;base64,"
    },
    {
      "byteLength": 144,
      "uri": "data:application/octet-stream;base64,"
    },
    {
      "byteLength": 288,
      "uri": "data:application/octet-stream;base64,"
    },
    {
      "byteLength": 288,
      "uri": "data:application/octet-stream;base64,"
    },
    {
      "byteLength": 192,
      "uri": "data:application/octet-stream;base64,"
    },
    {
      "byteLength": 144,
      "uri": "data:application/octet-stream;base64,"
    },
    {
      "byteLength": 288,
      "uri": "data:application/octet-stream;base64,"
    },
    {
      "byteLength": 288,
      "uri": "data:application/octet-stream;base64,"
    },
    {
      "byteLength": 192,
      "uri": "data:application/octet-stream;base64,"
    },
    {
      "byteLength": 144,
      "uri": "data:application/octet-stream;base64,"
    },
    {
      "byteLength": 288,
      "uri": "data:application/octet-stream;base64,"
    },
    {
      "byteLength": 288,
      "uri": "data:application/octet-stream;base64,"
    },
    {
      "byteLength": 192,
      "uri": "data:application/octet-stream;base64,"
    },
    {
      "byteLength": 144,
      "uri": "data:application/octet-stream;base64,"
    },
    {
      "byteLength": 288,
      "uri": "data:application/octet-stream;base64,"
    },
    {
      "byteLength": 288,
      "uri": "data:application/octet-stream;base64,"
    },
    {
      "byteLength": 192,
      "uri": "data:application/octet-stream;base64,"
    },
    {
      "byteLength": 144,
      "uri": "data:application/octet-stream;base64,"
    },
    {
      "byteLength": 288,
      "uri": "data:application/octet-stream;base64,"
    },
    {
      "byteLength": 288,
      "uri": "data:application/octet-stream;base64,"
    },
    {
      "byteLength": 192,
      "uri": "data:application/octet-stream;base64,"
    },
    {
      "byteLength": 144,
      "uri": "data:application/octet-stream;base64,"
    },
    {
      "byteLength": 288,
      "uri": "data:application/octet-stream;base64,"
    },
    {
      "byteLength": 288,
      "uri": "data:application/octet-stream;base64,"
    },
    {
      "byteLength": 192,
      "uri": "data:application/octet-stream;base64,"
    },
    {
      "byteLength": 144,
      "uri": "data:application/octet-stream;base64,"
    },
    {
      "byteLength": 240,
      "uri": "data:application/octet-stream;base64,"
    },
    {
      "byteLength": 720,
      "uri": "data:application/octet-stream;base64,"
    },
    {
      "byteLength": 240,
      "uri": "data:application/octet-stream;base64,"
    },
    {
      "byteLength": 720,
      "uri": "data:application/octet-stream;base64,"
    },
    {
      "byteLength": 240,
      "uri": "data:application/octet-stream;base64,"
    },
    {
      "byteLength": 720,
      "uri": "data:application/octet-stream;base64,"
    },
    {
      "byteLength": 240,
      "uri": "data:application/octet-stream;base64,"
    },
    {
      "byteLength": 960,
      "uri": "data:application/octet-stream;base64,"
    },
    {
      "byteLength": 240,
      "uri": "data:application/octet-stream;base64,"
    },
    {
      "byteLength": 960,
      "uri": "data:application/octet-stream;base64,"
    },
    {
      "byteLength": 240,
      "uri": "data:application/octet-stream;base64,"
    },
    {
      "byteLength": 960,
      "uri": "data:application/octet-stream;base64,"
    }
  ],
  "materials": [
    {
      "doubleSided": true,
      "pbrMetallicRoughness": {
        "metallicFactor": 0.0,
        "roughnessFactor": 0.0
      }
    },
    {
      "doubleSided": true,
      "pbrMetallicRoughness": {
        "metallicFactor": 0.0,
        "roughnessFactor": 0.0
      }
    },
    {
      "doubleSided": true,
      "pbrMetallicRoughness": {
        "metallicFactor": 0.0,
        "roughnessFactor": 0.0
      }
    },
    {
      "doubleSided": true,
      "pbrMetallicRoughness": {
        "metallicFactor": 0.0,
        "roughnessFactor": 0.0
      }
    },
    {
      "doubleSided": true,
      "pbrMetallicRoughness": {
        "metallicFactor": 0.0,
        "roughnessFactor": 0.0
      }
    },
    {
      "doubleSided": true,
      "pbrMetallicRoughness": {
        "metallicFactor": 0.0,
        "roughnessFactor": 0.0
      }
    },
    {
      "doubleSided": true,
      "pbrMetallicRoughness": {
        "metallicFactor": 0.0,
        "roughnessFactor": 0.0
      }
    },
    {
      "doubleSided": true,
      "pbrMetallicRoughness": {
        "baseColorFactor": [
          1.0,
          0.6352941393852234,
          0.6862744688987732,
          1.0
        ],
        "metallicFactor": 0.0,
        "roughnessFactor": 0.0
      }
    },
    {
      "doubleSided": true,
      "pbrMetallicRoughness": {
        "baseColorFactor": [
          1.0,
          0.6352941393852234,
          0.6862744688987732,
          1.0
        ],
        "metallicFactor": 0.0,
        "roughnessFactor": 0.0
      }
    },
    {
      "doubleSided": true,
      "pbrMetallicRoughness": {
        "baseColorFactor": [
          1.0,
          0.6352941393852234,
          0.6862744688987732,
          1.0
        ],
        "metallicFactor": 0.0,
        "roughnessFactor": 0.0
      }
    },
    {
      "doubleSided": true,
      "pbrMetallicRoughness": {
        "metallicFactor": 0.0,
        "roughnessFactor": 0.0
      }
    },
    {
      "doubleSided": true,
      "pbrMetallicRoughness": {
        "metallicFactor": 0.0,
        "roughnessFactor": 0.0
      }
    },
    {
      "doubleSided": true,
      "pbrMetallicRoughness": {
        "baseColorFactor": [
          0.2078431397676468,
          0.2078431397676468,
          0.2078431397676468,
          1.0
        ],
        "metallicFactor": 0.0,
        "roughnessFactor": 0.0
      }
    },
    {
      "doubleSided": true,
      "pbrMetallicRoughness": {
        "baseColorFactor": [
          0.2078431397676468,
          0.2078431397676468,
          0.2078431397676468,
          1.0
        ],
        "metallicFactor": 0.0,
        "roughnessFactor": 0.0
      }
    }
  ],
  "meshes": [
    {
      "primitives": [
        {
          "attributes": {
            "NORMAL": 1,
            "POSITION": 0,
            "TEXCOORD_0": 2
          },
          "indices": 3,
          "material": 0,
          "mode": 4
        }
      ]
    },
    {
      "primitives": [
        {
          "attributes": {
            "NORMAL": 5,
            "POSITION": 4,
            "TEXCOORD_0": 6
          },
          "indices": 7,
          "material": 1,
          "mode": 4
        }
      ]
    },
    {
      "primitives": [
        {
          "attributes": {
            "NORMAL": 9,
            "POSITION": 8,
            "TEXCOORD_0": 10
          },
          "indices": 11,
          "material": 2,
          "mode": 4
        }
      ]
    },
    {
      "primitives": [
        {
          "attributes": {
            "NORMAL": 13,
            "POSITION": 12,
            "TEXCOORD_0": 14
          },
          "indices": 15,
          "material": 3,
          "mode": 4
        }
      ]
    },
    {
      "primitives": [
        {
          "attributes": {
            "NORMAL": 17,
            "POSITION": 16,
            "TEXCOORD_0": 18
          },
          "indices": 19,
          "material": 4,
          "mode": 4
        }
      ]
    },
    {
      "primitives": [
        {
          "attributes": {
            "NORMAL": 21,
            "POSITION": 20,
            "TEXCOORD_0": 22
          },
          "indices": 23,
          "material": 5,
          "mode": 4
        }
      ]
    },
    {
      "primitives": [
        {
          "attributes": {
            "NORMAL": 25,
            "POSITION": 24,
            "TEXCOORD_0": 26
          },
          "indices": 27,
          "material": 6,
          "mode": 4
        }
      ]
    },
    {
      "primitives": [
        {
          "attributes": {
            "NORMAL": 29,
            "POSITION": 28,
            "TEXCOORD_0": 30
          },
          "indices": 31,
          "material": 7,
          "mode": 4
        }
      ]
    },
    {
      "primitives": [
        {
          "attributes": {
            "NORMAL": 33,
            "POSITION": 32,
            "TEXCOORD_0": 34
          },
          "indices": 35,
          "material": 8,
          "mode": 4
        }
      ]
    },
    {
      "primitives": [
        {
          "attributes": {
            "NORMAL": 37,
            "POSITION": 36,
            "TEXCOORD_0": 38
          },
          "indices": 39,
          "material": 9,
          "mode": 4
        }
      ]
    },
    {
      "primitives": [
        {
          "attributes": {
            "NORMAL": 41,
            "POSITION": 40,
            "TEXCOORD_0": 42
          },
          "indices": 43,
          "material": 10,
          "mode": 4
        }
      ]
    },
    {
      "primitives": [
        {
          "attributes": {
            "NORMAL": 45,
            "POSITION": 44,
            "TEXCOORD_0": 46
          },
          "indices": 47,
          "material": 11,
          "mode": 4
        }
      ]
    },
    {
      "primitives": [
        {
          "attributes": {
            "NORMAL": 49,
            "POSITION": 48,
            "TEXCOORD_0": 50
          },
          "indices": 51,
          "material": 12,
          "mode": 4
        }
      ]
    },
    {
      "primitives": [
        {
          "attributes": {
            "NORMAL": 53,
            "POSITION": 52,
            "TEXCOORD_0": 54
          },
          "indices": 55,
          "material": 13,
          "mode": 4
        }
      ]
    }
  ],
  "nodes": [
    {
      "mesh": 0,
      "name": "Küp",
      "rotation": [
        -1.0,
        3.552713678800501e-15,
        -2.6054013479537112e-15,
        -4.371138828673793e-08
      ],
      "scale": [
        1.0,
        1.0,
        1.0
      ],
      "translation": [
        0.09355273842811584,
        0.10324174910783768,
        0.1389734148979187
      ]
    },
    {
      "mesh": 1,
      "name": "Küp",
      "rotation": [
        -1.0,
        3.552713678800501e-15,
        -2.6054013479537112e-15,
        -4.371138828673793e-08
      ],
      "scale": [
        1.0,
        1.0,
        1.0
      ],
      "translation": [
        0.09355273842811584,
        0.1032419428229332,
        0.8981873989105225
      ]
    },
    {
      "mesh": 2,
      "name": "Küp",
      "rotation": [
        -1.0,
        3.552713678800501e-15,
        -2.6054013479537112e-15,
        -4.371138828673793e-08
      ],
      "scale": [
        1.0,
        1.0,
        1.0
      ],
      "translation": [
        0.9010239839553833,
        0.10324202477931976,
        0.8981873989105225
      ]
    },
    {
      "mesh": 3,
      "name": "Küp",
      "rotation": [
        -1.0,
        3.552713678800501e-15,
        -2.6054013479537112e-15,
        -4.371138828673793e-08
      ],
      "scale": [
        1.0,
        1.0,
        1.0
      ],
      "translation": [
        0.9010239839553833,
        0.10324173420667648,
        0.15748721361160278
      ]
    },
    {
      "mesh": 4,
      "name": "Küp",
      "rotation": [
        -1.0,
        1.0658144424533292e-14,
        -2.605400289162527e-15,
        -4.371138828673793e-08
      ],
      "scale": [
        1.0,
        1.0,
        1.0
      ],
      "translation": [
        0.4806145429611206,
        0.3670711815357208,
        0.5087719559669495
      ]
    },
    {
      "name": "Gökyüzü Işığı",
      "rotation": [
        0.0,
        -0.0,
        -0.0,
        1.0
      ],
      "scale": [
        1.0,
        1.0,
        1.0
      ],
      "translation": [
        -0.0,
        0.0,
        0.0
      ]
    },
    {
      "mesh": 5,
      "name": "Küp",
      "rotation": [
        -1.0,
        1.0658143577500345e-14,
        -2.6054011361954744e-15,
        -4.371138828673793e-08
      ],
      "scale": [
        1.0,
        1.0,
        1.0
      ],
      "translation": [
        0.9989711046218872,
        0.5101683139801025,
        0.5090471506118774
      ]
    },
    {
      "children": [
        9,
        8
      ],
      "name": "Grup",
      "rotation": [
        0.0,
        -0.0,
        -0.0,
        1.0
      ],
      "scale": [
        1.0,
        1.0,
        1.0
      ],
      "translation": [
        0.03946046531200409,
        4.704055367454885e-09,
        0.0
      ]
    },
    {
      "mesh": 6,
      "name": "Küp",
      "rotation": [
        1.0,
        4.371138473402425e-08,
        4.371138473402425e-08,
        4.371139183945161e-08
      ],
      "scale": [
        1.0,
        1.0,
        1.0
      ],
      "translation": [
        0.10396274924278259,
        0.7798341512680054,
        0.5308283567428589
      ]
    },
    {
      "children": [
        18,
        17,
        16,
        14,
        13,
        11,
        10
      ],
      "name": "Grup",
      "rotation": [
        0.0,
        -0.0,
        -0.0,
        1.0
      ],
      "scale": [
        1.0,
        1.0,
        1.0
      ],
      "translation": [
        -0.0,
        0.0,
        0.0
      ]
    },
    {
      "mesh": 7,
      "name": "Küp",
      "rotation": [
        -4.371139183945161e-08,
        4.371138473402425e-08,
        -1.0,
        -4.371139183945161e-08
      ],
      "scale": [
        1.0,
        1.0,
        1.0
      ],
      "translation": [
        -0.11537143588066101,
        0.6788314580917358,
        0.5175178050994873
      ]
    },
    {
      "children": [
        12
      ],
      "name": "Grup",
      "rotation": [
        0.0,
        -0.0,
        -0.0,
        1.0
      ],
      "scale": [
        1.0,
        1.0,
        1.0
      ],
      "translation": [
        -0.0,
        0.0,
        0.0
      ]
    },
    {
      "mesh": 8,
      "name": "Küp",
      "rotation": [
        -4.371139183945161e-08,
        4.371138473402425e-08,
        -1.0,
        -4.371139183945161e-08
      ],
      "scale": [
        1.0,
        1.0,
        1.0
      ],
      "translation": [
        -0.018017468973994255,
        1.1448781490325928,
        0.4151929020881653
      ]
    },
    {
      "mesh": 9,
      "name": "Küp",
      "rotation": [
        -4.371139183945161e-08,
        4.371138473402425e-08,
        -1.0,
        -4.371139183945161e-08
      ],
      "scale": [
        1.0,
        1.0,
        1.0
      ],
      "translation": [
        -0.018017452210187912,
        1.1448781490325928,
        0.6300948262214661
      ]
    },
    {
      "children": [
        15
      ],
      "name": "Grup",
      "rotation": [
        0.0,
        -0.0,
        -0.0,
        1.0
      ],
      "scale": [
        1.0,
        1.0,
        1.0
      ],
      "translation": [
        -0.0,
        2.129340259671153e-09,
        -0.01786220818758011
      ]
    },
    {
      "mesh": 10,
      "name": "Küp",
      "rotation": [
        1.0,
        4.371138473402425e-08,
        4.371138473402425e-08,
        4.371139183945161e-08
      ],
      "scale": [
        1.0,
        1.0,
        1.0
      ],
      "translation": [
        0.09355273842811584,
        1.0971856117248535,
        0.4316166639328003
      ]
    },
    {
      "mesh": 11,
      "name": "Küp",
      "rotation": [
        1.0,
        4.371138473402425e-08,
        4.371138473402425e-08,
        4.371139183945161e-08
      ],
      "scale": [
        1.0,
        1.0,
        1.0
      ],
      "translation": [
        0.09355273842811584,
        1.0971856117248535,
        0.6300948262214661
      ]
    },
    {
      "mesh": 12,
      "name": "Küp",
      "rotation": [
        1.0,
        4.371138473402425e-08,
        4.371138473402425e-08,
        4.371139183945161e-08
      ],
      "scale": [
        1.0,
        1.0,
        1.0
      ],
      "translation": [
        -0.11329734325408936,
        0.8844340443611145,
        0.37952208518981934
      ]
    },
    {
      "mesh": 13,
      "name": "Küp",
      "rotation": [
        1.0,
        4.371138473402425e-08,
        4.371138473402425e-08,
        4.371139183945161e-08
      ],
      "scale": [
        1.0,
        1.0,
        1.0
      ],
      "translation": [
        -0.11329734325408936,
        0.8844340443611145,
        0.6540008783340454
      ]
    }
  ],
  "scenes": [
    {
      "nodes": [
        0,
        1,
        2,
        3,
        4,
        5,
        6,
        7
      ]
    }
  ]
}
